<svg width="424" height="87" viewBox="0 0 424 87" fill="none" xmlns="http://www.w3.org/2000/svg">
<rect width="424" height="87" rx="10" fill="#82CCDD"/>
<path d="M54.25 36.35C53.9833 37.15 53.6333 38.2 53.2 39.5C52.8 40.7667 52.35 42.1667 51.85 43.7C51.35 45.2333 50.8333 46.8667 50.3 48.6C49.7667 50.3 49.2167 51.9667 48.65 53.6C48.1167 55.2333 47.5833 56.8 47.05 58.3C46.5167 59.7667 46.0333 61.05 45.6 62.15C45.4667 62.4167 45.1833 62.6333 44.75 62.8C44.35 62.9333 43.7 63 42.8 63C42.2333 63 41.65 62.9667 41.05 62.9C40.45 62.8333 39.8833 62.7 39.35 62.5C38.85 62.3 38.4 62.0333 38 61.7C37.6333 61.3667 37.35 60.95 37.15 60.45C36.65 58.75 36.1667 56.8667 35.7 54.8C35.2667 52.7 34.8333 50.5667 34.4 48.4C33.9667 46.2333 33.5333 44.1167 33.1 42.05C32.7 39.95 32.2833 38.05 31.85 36.35C31.85 36.8167 31.8333 37.6167 31.8 38.75C31.7667 39.8833 31.7333 41.2 31.7 42.7C31.6667 44.2 31.6167 45.8167 31.55 47.55C31.5167 49.2833 31.4833 50.9833 31.45 52.65C31.4167 54.2833 31.3833 55.8167 31.35 57.25C31.3167 58.65 31.3 59.8 31.3 60.7C31.3 61.7 31.2333 62.3333 31.1 62.6C31 62.8667 30.8 63 30.5 63H27.75C25.85 63 24.5 62.6333 23.7 61.9C22.9333 61.1333 22.55 60.0167 22.55 58.55C22.55 58.15 22.5667 57.4833 22.6 56.55C22.6667 55.5833 22.75 54.45 22.85 53.15C22.95 51.85 23.05 50.4333 23.15 48.9C23.2833 47.3333 23.4167 45.75 23.55 44.15C23.7167 41.9833 23.85 40.1833 23.95 38.75C24.0833 37.2833 24.1833 36.0667 24.25 35.1C24.3167 34.1333 24.3667 33.35 24.4 32.75C24.4667 32.15 24.5 31.6167 24.5 31.15C24.5333 30.6833 24.55 30.25 24.55 29.85C24.5833 29.4167 24.6 28.8833 24.6 28.25C24.6 27.9833 24.7 27.8 24.9 27.7C25.1 27.5667 25.2833 27.5 25.45 27.5H32.45C33.75 27.5 34.8167 27.7167 35.65 28.15C36.4833 28.55 37.1667 29.1833 37.7 30.05C38.2333 30.9167 38.6667 32.05 39 33.45C39.3333 34.8167 39.6333 36.45 39.9 38.35C40.2 40.25 40.5167 42.45 40.85 44.95C41.2167 47.4167 41.6833 50.2 42.25 53.3C42.7833 51.2333 43.2333 49.5167 43.6 48.15C43.9667 46.7833 44.2667 45.65 44.5 44.75C44.7667 43.8167 44.9833 43.05 45.15 42.45C45.3167 41.85 45.4667 41.3 45.6 40.8C45.7333 40.2667 45.8833 39.7 46.05 39.1C46.2167 38.5 46.4167 37.75 46.65 36.85C46.8833 35.95 47.1667 34.8333 47.5 33.5C47.8667 32.1333 48.3167 30.4167 48.85 28.35C48.9167 28.15 49.0333 27.9667 49.2 27.8C49.3667 27.6 49.6667 27.5 50.1 27.5H57.9C58.9667 27.5 59.8167 27.6167 60.45 27.85C61.1167 28.05 61.6333 28.35 62 28.75C62.3667 29.15 62.6167 29.65 62.75 30.25C62.8833 30.8167 62.95 31.4833 62.95 32.25C62.95 33.0167 62.9 34.2667 62.8 36C62.7333 37.7 62.6167 39.6333 62.45 41.8C62.3167 43.9333 62.1667 46.15 62 48.45C61.8667 50.75 61.7167 52.8833 61.55 54.85C61.4167 56.8167 61.3 58.4833 61.2 59.85C61.1 61.2167 61.0333 62.0167 61 62.25C60.9667 62.5167 60.9 62.7167 60.8 62.85C60.7 62.95 60.5 63 60.2 63H57.45C55.55 63 54.2 62.6333 53.4 61.9C52.6333 61.1333 52.25 60.15 52.25 58.95C52.25 58.5833 52.2833 57.9167 52.35 56.95C52.45 55.9833 52.5667 54.85 52.7 53.55C52.8333 52.25 52.9833 50.8333 53.15 49.3C53.3167 47.7333 53.4667 46.1833 53.6 44.65C53.7333 43.1167 53.85 41.6333 53.95 40.2C54.0833 38.7333 54.1833 37.45 54.25 36.35ZM65.9602 56.85C65.9602 53.85 67.3102 51.5 70.0102 49.8C72.7102 48.1 76.6935 47.1833 81.9602 47.05C81.9935 46.6833 82.0102 46.3833 82.0102 46.15C82.0435 45.8833 82.0602 45.5667 82.0602 45.2C82.0602 44.1333 81.8602 43.2833 81.4602 42.65C81.0602 42.0167 80.2268 41.7 78.9602 41.7C78.2602 41.7 77.6935 41.8 77.2602 42C76.8268 42.2 76.4768 42.4833 76.2102 42.85C75.9435 43.1833 75.7268 43.6 75.5602 44.1C75.3935 44.6 75.2435 45.15 75.1102 45.75C75.0435 46.05 74.8935 46.25 74.6602 46.35C74.4268 46.4167 74.0602 46.45 73.5602 46.45C70.1602 46.45 68.4602 45.1667 68.4602 42.6C68.4602 41.5667 68.6935 40.5833 69.1602 39.65C69.6602 38.7167 70.3768 37.9167 71.3102 37.25C72.2768 36.55 73.4768 36 74.9102 35.6C76.3435 35.2 78.0102 35 79.9102 35C83.6102 35 86.2935 35.7667 87.9602 37.3C89.6268 38.8333 90.4602 41 90.4602 43.8C90.4602 44.1667 90.4102 44.8333 90.3102 45.8C90.2435 46.7333 90.1435 47.7333 90.0102 48.8C89.9102 49.8333 89.8102 50.8167 89.7102 51.75C89.6435 52.6833 89.6102 53.3333 89.6102 53.7C89.6102 54.5333 89.7602 55.1333 90.0602 55.5C90.3602 55.8333 90.6935 56.0667 91.0602 56.2C91.4602 56.3333 91.8102 56.4333 92.1102 56.5C92.4102 56.5667 92.5602 56.7333 92.5602 57C92.5602 57.7333 92.4602 58.4833 92.2602 59.25C92.0602 60.0167 91.7268 60.7167 91.2602 61.35C90.8268 61.9833 90.2102 62.5 89.4102 62.9C88.6435 63.3 87.6935 63.5 86.5602 63.5C84.9602 63.5 83.7602 63.1167 82.9602 62.35C82.1602 61.5833 81.6268 60.5167 81.3602 59.15C80.5602 60.3167 79.5102 61.3333 78.2102 62.2C76.9435 63.0667 75.2768 63.5 73.2102 63.5C72.2102 63.5 71.2602 63.3833 70.3602 63.15C69.4935 62.9167 68.7268 62.5333 68.0602 62C67.4268 61.4667 66.9102 60.7833 66.5102 59.95C66.1435 59.0833 65.9602 58.05 65.9602 56.85ZM81.5102 51.15C80.6435 51.15 79.7935 51.2167 78.9602 51.35C78.1268 51.4833 77.3768 51.7 76.7102 52C76.0768 52.2667 75.5602 52.6333 75.1602 53.1C74.7602 53.5667 74.5602 54.1333 74.5602 54.8C74.5602 55.5667 74.7935 56.1 75.2602 56.4C75.7602 56.7 76.2935 56.85 76.8602 56.85C77.3935 56.85 77.9268 56.7333 78.4602 56.5C78.9935 56.2667 79.4602 55.9167 79.8602 55.45C80.2935 54.95 80.6602 54.35 80.9602 53.65C81.2602 52.95 81.4435 52.1167 81.5102 51.15ZM127.834 36.35C127.567 37.15 127.217 38.2 126.784 39.5C126.384 40.7667 125.934 42.1667 125.434 43.7C124.934 45.2333 124.417 46.8667 123.884 48.6C123.351 50.3 122.801 51.9667 122.234 53.6C121.701 55.2333 121.167 56.8 120.634 58.3C120.101 59.7667 119.617 61.05 119.184 62.15C119.051 62.4167 118.767 62.6333 118.334 62.8C117.934 62.9333 117.284 63 116.384 63C115.817 63 115.234 62.9667 114.634 62.9C114.034 62.8333 113.467 62.7 112.934 62.5C112.434 62.3 111.984 62.0333 111.584 61.7C111.217 61.3667 110.934 60.95 110.734 60.45C110.234 58.75 109.751 56.8667 109.284 54.8C108.851 52.7 108.417 50.5667 107.984 48.4C107.551 46.2333 107.117 44.1167 106.684 42.05C106.284 39.95 105.867 38.05 105.434 36.35C105.434 36.8167 105.417 37.6167 105.384 38.75C105.351 39.8833 105.317 41.2 105.284 42.7C105.251 44.2 105.201 45.8167 105.134 47.55C105.101 49.2833 105.067 50.9833 105.034 52.65C105.001 54.2833 104.967 55.8167 104.934 57.25C104.901 58.65 104.884 59.8 104.884 60.7C104.884 61.7 104.817 62.3333 104.684 62.6C104.584 62.8667 104.384 63 104.084 63H101.334C99.434 63 98.084 62.6333 97.284 61.9C96.5173 61.1333 96.134 60.0167 96.134 58.55C96.134 58.15 96.1507 57.4833 96.184 56.55C96.2507 55.5833 96.334 54.45 96.434 53.15C96.534 51.85 96.634 50.4333 96.734 48.9C96.8673 47.3333 97.0007 45.75 97.134 44.15C97.3007 41.9833 97.434 40.1833 97.534 38.75C97.6673 37.2833 97.7673 36.0667 97.834 35.1C97.9007 34.1333 97.9507 33.35 97.984 32.75C98.0507 32.15 98.084 31.6167 98.084 31.15C98.1173 30.6833 98.134 30.25 98.134 29.85C98.1673 29.4167 98.184 28.8833 98.184 28.25C98.184 27.9833 98.284 27.8 98.484 27.7C98.684 27.5667 98.8673 27.5 99.034 27.5H106.034C107.334 27.5 108.401 27.7167 109.234 28.15C110.067 28.55 110.751 29.1833 111.284 30.05C111.817 30.9167 112.251 32.05 112.584 33.45C112.917 34.8167 113.217 36.45 113.484 38.35C113.784 40.25 114.101 42.45 114.434 44.95C114.801 47.4167 115.267 50.2 115.834 53.3C116.367 51.2333 116.817 49.5167 117.184 48.15C117.551 46.7833 117.851 45.65 118.084 44.75C118.351 43.8167 118.567 43.05 118.734 42.45C118.901 41.85 119.051 41.3 119.184 40.8C119.317 40.2667 119.467 39.7 119.634 39.1C119.801 38.5 120.001 37.75 120.234 36.85C120.467 35.95 120.751 34.8333 121.084 33.5C121.451 32.1333 121.901 30.4167 122.434 28.35C122.501 28.15 122.617 27.9667 122.784 27.8C122.951 27.6 123.251 27.5 123.684 27.5H131.484C132.551 27.5 133.401 27.6167 134.034 27.85C134.701 28.05 135.217 28.35 135.584 28.75C135.951 29.15 136.201 29.65 136.334 30.25C136.467 30.8167 136.534 31.4833 136.534 32.25C136.534 33.0167 136.484 34.2667 136.384 36C136.317 37.7 136.201 39.6333 136.034 41.8C135.901 43.9333 135.751 46.15 135.584 48.45C135.451 50.75 135.301 52.8833 135.134 54.85C135.001 56.8167 134.884 58.4833 134.784 59.85C134.684 61.2167 134.617 62.0167 134.584 62.25C134.551 62.5167 134.484 62.7167 134.384 62.85C134.284 62.95 134.084 63 133.784 63H131.034C129.134 63 127.784 62.6333 126.984 61.9C126.217 61.1333 125.834 60.15 125.834 58.95C125.834 58.5833 125.867 57.9167 125.934 56.95C126.034 55.9833 126.151 54.85 126.284 53.55C126.417 52.25 126.567 50.8333 126.734 49.3C126.901 47.7333 127.051 46.1833 127.184 44.65C127.317 43.1167 127.434 41.6333 127.534 40.2C127.667 38.7333 127.767 37.45 127.834 36.35ZM152.35 63.5C150.883 63.5 149.417 63.3167 147.95 62.95C146.517 62.5833 145.217 61.95 144.05 61.05C142.917 60.15 141.983 58.95 141.25 57.45C140.517 55.95 140.15 54.0667 140.15 51.8C140.15 50.9667 140.217 49.9667 140.35 48.8C140.483 47.6333 140.733 46.4333 141.1 45.2C141.5 43.9667 142.033 42.75 142.7 41.55C143.4 40.3167 144.3 39.2167 145.4 38.25C146.5 37.2833 147.833 36.5 149.4 35.9C150.967 35.3 152.833 35 155 35C156.733 35 158.2 35.2 159.4 35.6C160.6 36 161.567 36.55 162.3 37.25C163.033 37.9167 163.567 38.7 163.9 39.6C164.233 40.5 164.4 41.4667 164.4 42.5C164.4 44.0333 164.083 45.3333 163.45 46.4C162.85 47.4667 162.05 48.3667 161.05 49.1C160.083 49.8 159 50.35 157.8 50.75C156.6 51.15 155.417 51.4667 154.25 51.7C153.083 51.9 152 52.0333 151 52.1C150.033 52.1333 149.283 52.15 148.75 52.15C148.75 52.7833 148.833 53.4167 149 54.05C149.2 54.65 149.483 55.1833 149.85 55.65C150.217 56.1167 150.7 56.5 151.3 56.8C151.9 57.1 152.633 57.25 153.5 57.25C154.367 57.25 155.033 57.1167 155.5 56.85C156 56.55 156.4 56.2333 156.7 55.9C157 55.5333 157.25 55.2167 157.45 54.95C157.683 54.65 157.983 54.5 158.35 54.5C158.517 54.5 158.8 54.55 159.2 54.65C159.633 54.7167 160.067 54.8833 160.5 55.15C160.933 55.4167 161.317 55.7833 161.65 56.25C161.983 56.7167 162.15 57.3167 162.15 58.05C162.15 59.0167 161.85 59.85 161.25 60.55C160.65 61.25 159.867 61.8167 158.9 62.25C157.967 62.6833 156.917 63 155.75 63.2C154.583 63.4 153.45 63.5 152.35 63.5ZM153.3 41.65C152.567 41.65 151.933 41.8667 151.4 42.3C150.9 42.7 150.467 43.2167 150.1 43.85C149.767 44.4833 149.5 45.1833 149.3 45.95C149.133 46.7167 149 47.45 148.9 48.15C150.967 48.1167 152.633 47.7667 153.9 47.1C155.2 46.4333 155.85 45.4833 155.85 44.25C155.85 43.5833 155.633 42.9833 155.2 42.45C154.8 41.9167 154.167 41.65 153.3 41.65ZM155.5 32.25C155.267 32.25 155 32.1667 154.7 32C154.433 31.8333 154.167 31.6333 153.9 31.4C153.633 31.1333 153.4 30.8667 153.2 30.6C153.033 30.3 152.95 30.05 152.95 29.85C152.95 29.7833 153.117 29.5 153.45 29C153.783 28.5 154.2 27.8833 154.7 27.15C155.2 26.4167 155.75 25.6167 156.35 24.75C156.95 23.8833 157.517 23.0667 158.05 22.3C158.25 22 158.417 21.8 158.55 21.7C158.683 21.6 158.9 21.55 159.2 21.55C159.6 21.55 160.117 21.65 160.75 21.85C161.383 22.05 162 22.3 162.6 22.6C163.2 22.9 163.717 23.2333 164.15 23.6C164.583 23.9333 164.8 24.25 164.8 24.55C164.8 24.7833 164.6 25.1333 164.2 25.6C163.833 26.0667 163.35 26.5833 162.75 27.15C162.15 27.7167 161.483 28.3 160.75 28.9C160.017 29.5 159.3 30.05 158.6 30.55C157.9 31.05 157.267 31.4667 156.7 31.8C156.167 32.1 155.767 32.25 155.5 32.25ZM176.561 63.5C175.261 63.5 174.011 63.2667 172.811 62.8C171.645 62.3333 170.611 61.6 169.711 60.6C168.845 59.6 168.145 58.3333 167.611 56.8C167.111 55.2667 166.861 53.4167 166.861 51.25C166.861 50.2833 166.928 49.2167 167.061 48.05C167.195 46.85 167.428 45.65 167.761 44.45C168.095 43.25 168.561 42.0833 169.161 40.95C169.761 39.8167 170.511 38.8167 171.411 37.95C172.345 37.05 173.445 36.3333 174.711 35.8C176.011 35.2667 177.528 35 179.261 35C180.928 35 182.261 35.3 183.261 35.9C184.295 36.4667 184.945 37.4667 185.211 38.9C185.278 37.6 185.345 36.4667 185.411 35.5C185.478 34.5333 185.528 33.6333 185.561 32.8C185.628 31.9667 185.695 31.1333 185.761 30.3C185.828 29.4667 185.895 28.5167 185.961 27.45C185.995 26.7167 186.078 26.2833 186.211 26.15C186.278 26.0833 186.361 26.05 186.461 26.05C186.561 26.0167 186.745 26 187.011 26H188.961C189.961 26 190.795 26.1167 191.461 26.35C192.128 26.5833 192.661 26.9 193.061 27.3C193.461 27.7 193.745 28.1667 193.911 28.7C194.078 29.2 194.161 29.7333 194.161 30.3C194.161 30.3 194.128 30.7167 194.061 31.55C193.995 32.3833 193.911 33.5 193.811 34.9C193.711 36.2667 193.595 37.8333 193.461 39.6C193.328 41.3667 193.195 43.2 193.061 45.1C192.928 46.9667 192.795 48.8333 192.661 50.7C192.528 52.5333 192.395 54.2333 192.261 55.8C192.128 57.3333 192.011 58.6667 191.911 59.8C191.845 60.9 191.795 61.6333 191.761 62C191.695 62.4 191.611 62.6667 191.511 62.8C191.411 62.9333 191.128 63 190.661 63H188.861C188.161 63 187.495 62.95 186.861 62.85C186.261 62.7167 185.728 62.5167 185.261 62.25C184.828 61.95 184.478 61.5667 184.211 61.1C183.978 60.6 183.861 59.9667 183.861 59.2C183.261 60.4667 182.345 61.5 181.111 62.3C179.911 63.1 178.395 63.5 176.561 63.5ZM180.911 41.65C179.211 41.65 177.945 42.4 177.111 43.9C176.311 45.3667 175.911 47.35 175.911 49.85C175.911 50.7167 175.961 51.5667 176.061 52.4C176.195 53.2333 176.411 53.9833 176.711 54.65C177.011 55.3167 177.411 55.85 177.911 56.25C178.445 56.65 179.111 56.85 179.911 56.85C181.345 56.85 182.545 56.15 183.511 54.75C184.478 53.35 184.961 51.15 184.961 48.15C184.961 47.3167 184.911 46.5167 184.811 45.75C184.711 44.95 184.511 44.25 184.211 43.65C183.911 43.05 183.495 42.5667 182.961 42.2C182.428 41.8333 181.745 41.65 180.911 41.65ZM202.981 63C201.948 63 201.098 62.9 200.431 62.7C199.798 62.4667 199.281 62.15 198.881 61.75C198.515 61.35 198.248 60.8667 198.081 60.3C197.948 59.7 197.881 59.0167 197.881 58.25C197.881 57.75 197.898 57.05 197.931 56.15C197.998 55.2167 198.098 53.95 198.231 52.35C198.365 50.7167 198.515 48.6667 198.681 46.2C198.881 43.7 199.115 40.6167 199.381 36.95C199.415 36.2167 199.498 35.7833 199.631 35.65C199.731 35.55 199.998 35.5 200.431 35.5H202.381C203.415 35.5 204.248 35.6 204.881 35.8C205.548 36 206.065 36.3 206.431 36.7C206.831 37.1 207.098 37.5833 207.231 38.15C207.398 38.7167 207.481 39.35 207.481 40.05C207.481 40.55 207.448 41.3 207.381 42.3C207.315 43.3 207.215 44.6667 207.081 46.4C206.981 48.1 206.831 50.2333 206.631 52.8C206.431 55.3333 206.181 58.4 205.881 62C205.848 62.4 205.765 62.6667 205.631 62.8C205.498 62.9333 205.215 63 204.781 63H202.981ZM199.431 29.6C199.431 28.2667 199.915 27.2167 200.881 26.45C201.848 25.6833 203.148 25.3 204.781 25.3C206.215 25.3 207.248 25.6 207.881 26.2C208.548 26.7667 208.881 27.5333 208.881 28.5C208.881 29.7333 208.415 30.7667 207.481 31.6C206.581 32.4 205.248 32.8 203.481 32.8C200.781 32.8 199.431 31.7333 199.431 29.6ZM210.394 56.85C210.394 53.85 211.744 51.5 214.444 49.8C217.144 48.1 221.127 47.1833 226.394 47.05C226.427 46.6833 226.444 46.3833 226.444 46.15C226.477 45.8833 226.494 45.5667 226.494 45.2C226.494 44.1333 226.294 43.2833 225.894 42.65C225.494 42.0167 224.66 41.7 223.394 41.7C222.694 41.7 222.127 41.8 221.694 42C221.26 42.2 220.91 42.4833 220.644 42.85C220.377 43.1833 220.16 43.6 219.994 44.1C219.827 44.6 219.677 45.15 219.544 45.75C219.477 46.05 219.327 46.25 219.094 46.35C218.86 46.4167 218.494 46.45 217.994 46.45C214.594 46.45 212.894 45.1667 212.894 42.6C212.894 41.5667 213.127 40.5833 213.594 39.65C214.094 38.7167 214.81 37.9167 215.744 37.25C216.71 36.55 217.91 36 219.344 35.6C220.777 35.2 222.444 35 224.344 35C228.044 35 230.727 35.7667 232.394 37.3C234.06 38.8333 234.894 41 234.894 43.8C234.894 44.1667 234.844 44.8333 234.744 45.8C234.677 46.7333 234.577 47.7333 234.444 48.8C234.344 49.8333 234.244 50.8167 234.144 51.75C234.077 52.6833 234.044 53.3333 234.044 53.7C234.044 54.5333 234.194 55.1333 234.494 55.5C234.794 55.8333 235.127 56.0667 235.494 56.2C235.894 56.3333 236.244 56.4333 236.544 56.5C236.844 56.5667 236.994 56.7333 236.994 57C236.994 57.7333 236.894 58.4833 236.694 59.25C236.494 60.0167 236.16 60.7167 235.694 61.35C235.26 61.9833 234.644 62.5 233.844 62.9C233.077 63.3 232.127 63.5 230.994 63.5C229.394 63.5 228.194 63.1167 227.394 62.35C226.594 61.5833 226.06 60.5167 225.794 59.15C224.994 60.3167 223.944 61.3333 222.644 62.2C221.377 63.0667 219.71 63.5 217.644 63.5C216.644 63.5 215.694 63.3833 214.794 63.15C213.927 62.9167 213.16 62.5333 212.494 62C211.86 61.4667 211.344 60.7833 210.944 59.95C210.577 59.0833 210.394 58.05 210.394 56.85ZM225.944 51.15C225.077 51.15 224.227 51.2167 223.394 51.35C222.56 51.4833 221.81 51.7 221.144 52C220.51 52.2667 219.994 52.6333 219.594 53.1C219.194 53.5667 218.994 54.1333 218.994 54.8C218.994 55.5667 219.227 56.1 219.694 56.4C220.194 56.7 220.727 56.85 221.294 56.85C221.827 56.85 222.36 56.7333 222.894 56.5C223.427 56.2667 223.894 55.9167 224.294 55.45C224.727 54.95 225.094 54.35 225.394 53.65C225.694 52.95 225.877 52.1167 225.944 51.15ZM250.818 42.25C250.718 43.5167 250.601 44.7667 250.468 46C250.368 47.2333 250.268 48.4 250.168 49.5C250.068 50.6 249.984 51.5833 249.918 52.45C249.884 53.3167 249.868 53.9833 249.868 54.45C249.868 55.3167 249.968 55.9 250.168 56.2C250.368 56.4667 250.701 56.6 251.168 56.6C251.534 56.6 251.851 56.5333 252.118 56.4C252.384 56.2667 252.634 56.1167 252.868 55.95C253.101 55.7833 253.301 55.6333 253.468 55.5C253.668 55.3667 253.884 55.3 254.118 55.3C254.351 55.3 254.568 55.4333 254.768 55.7C254.968 55.9667 255.068 56.5833 255.068 57.55C255.068 59.3833 254.568 60.8333 253.568 61.9C252.568 62.9667 250.851 63.5 248.418 63.5C246.018 63.5 244.234 62.95 243.068 61.85C241.934 60.7167 241.368 59 241.368 56.7C241.368 56.2 241.384 55.6167 241.418 54.95C241.484 54.25 241.568 53.35 241.668 52.25C241.768 51.15 241.884 49.8 242.018 48.2C242.184 46.6 242.351 44.6167 242.518 42.25H239.868C239.601 42.25 239.434 42.2 239.368 42.1C239.334 41.9667 239.318 41.7833 239.318 41.55L239.468 39C239.501 38.5667 239.551 38.15 239.618 37.75C239.718 37.3167 239.884 36.9333 240.118 36.6C240.384 36.2667 240.751 36 241.218 35.8C241.684 35.6 242.301 35.5 243.068 35.5C243.301 34.9 243.568 34.1833 243.868 33.35C244.168 32.5167 244.468 31.7167 244.768 30.95C245.068 30.15 245.351 29.4833 245.618 28.95C245.918 28.4167 246.184 28.15 246.418 28.15H247.868C249.268 28.15 250.234 28.5833 250.768 29.45C251.301 30.3167 251.568 31.35 251.568 32.55C251.568 33.2167 251.518 34.2 251.418 35.5H256.668C257.201 35.5 257.468 35.7333 257.468 36.2L257.268 38.9C257.201 39.9 256.918 40.7167 256.418 41.35C255.951 41.95 254.968 42.25 253.468 42.25H250.818ZM276.638 56.8C276.738 55.7 276.838 54.55 276.938 53.35C277.072 52.15 277.172 51 277.238 49.9C277.338 48.8 277.422 47.8167 277.488 46.95C277.555 46.0833 277.588 45.45 277.588 45.05C277.588 44.1833 277.372 43.4167 276.938 42.75C276.538 42.05 275.738 41.7 274.538 41.7C272.938 41.7 271.638 42.45 270.638 43.95C269.672 45.45 269.105 47.45 268.938 49.95C268.872 50.65 268.788 51.6333 268.688 52.9C268.588 54.1333 268.488 55.4 268.388 56.7C268.288 57.9667 268.188 59.1167 268.088 60.15C268.022 61.15 267.988 61.7667 267.988 62C267.988 62.4 267.905 62.6667 267.738 62.8C267.605 62.9333 267.322 63 266.888 63H265.088C264.055 63 263.205 62.9 262.538 62.7C261.905 62.4667 261.388 62.15 260.988 61.75C260.622 61.35 260.355 60.8667 260.188 60.3C260.055 59.7 259.988 59.0167 259.988 58.25C259.988 57.5167 260.038 56.5 260.138 55.2C260.272 53.8667 260.438 52.05 260.638 49.75C260.838 47.4167 261.072 44.45 261.338 40.85C261.605 37.25 261.888 32.7833 262.188 27.45C262.222 26.7167 262.305 26.2833 262.438 26.15C262.538 26.05 262.805 26 263.238 26H265.188C266.188 26 267.022 26.1167 267.688 26.35C268.355 26.5833 268.888 26.9 269.288 27.3C269.688 27.7 269.972 28.1667 270.138 28.7C270.305 29.2 270.388 29.7333 270.388 30.3C270.388 30.9 270.322 32.0167 270.188 33.65C270.088 35.2833 269.955 37.2 269.788 39.4C270.788 37.7333 271.888 36.5833 273.088 35.95C274.322 35.3167 275.872 35 277.738 35C279.138 35 280.355 35.15 281.388 35.45C282.422 35.75 283.272 36.2667 283.938 37C284.638 37.7 285.155 38.6333 285.488 39.8C285.822 40.9333 285.988 42.35 285.988 44.05C285.988 44.5833 285.938 45.5 285.838 46.8C285.738 48.1 285.605 49.5833 285.438 51.25C285.305 52.9167 285.155 54.6667 284.988 56.5C284.855 58.3 284.738 59.95 284.638 61.45C284.605 61.8167 284.572 62.1 284.538 62.3C284.505 62.5 284.438 62.65 284.338 62.75C284.272 62.85 284.155 62.9167 283.988 62.95C283.822 62.9833 283.588 63 283.288 63H281.688C280.622 63 279.755 62.9 279.088 62.7C278.422 62.5 277.905 62.2167 277.538 61.85C277.172 61.4833 276.905 61.0333 276.738 60.5C276.605 59.9333 276.538 59.3 276.538 58.6C276.538 58.2667 276.538 57.95 276.538 57.65C276.572 57.35 276.605 57.0667 276.638 56.8ZM302.008 63.5C300.542 63.5 299.075 63.3167 297.608 62.95C296.175 62.5833 294.875 61.95 293.708 61.05C292.575 60.15 291.642 58.95 290.908 57.45C290.175 55.95 289.808 54.0667 289.808 51.8C289.808 50.9667 289.875 49.9667 290.008 48.8C290.142 47.6333 290.392 46.4333 290.758 45.2C291.158 43.9667 291.692 42.75 292.358 41.55C293.058 40.3167 293.958 39.2167 295.058 38.25C296.158 37.2833 297.492 36.5 299.058 35.9C300.625 35.3 302.492 35 304.658 35C306.392 35 307.858 35.2 309.058 35.6C310.258 36 311.225 36.55 311.958 37.25C312.692 37.9167 313.225 38.7 313.558 39.6C313.892 40.5 314.058 41.4667 314.058 42.5C314.058 44.0333 313.742 45.3333 313.108 46.4C312.508 47.4667 311.708 48.3667 310.708 49.1C309.742 49.8 308.658 50.35 307.458 50.75C306.258 51.15 305.075 51.4667 303.908 51.7C302.742 51.9 301.658 52.0333 300.658 52.1C299.692 52.1333 298.942 52.15 298.408 52.15C298.408 52.7833 298.492 53.4167 298.658 54.05C298.858 54.65 299.142 55.1833 299.508 55.65C299.875 56.1167 300.358 56.5 300.958 56.8C301.558 57.1 302.292 57.25 303.158 57.25C304.025 57.25 304.692 57.1167 305.158 56.85C305.658 56.55 306.058 56.2333 306.358 55.9C306.658 55.5333 306.908 55.2167 307.108 54.95C307.342 54.65 307.642 54.5 308.008 54.5C308.175 54.5 308.458 54.55 308.858 54.65C309.292 54.7167 309.725 54.8833 310.158 55.15C310.592 55.4167 310.975 55.7833 311.308 56.25C311.642 56.7167 311.808 57.3167 311.808 58.05C311.808 59.0167 311.508 59.85 310.908 60.55C310.308 61.25 309.525 61.8167 308.558 62.25C307.625 62.6833 306.575 63 305.408 63.2C304.242 63.4 303.108 63.5 302.008 63.5ZM302.958 41.65C302.225 41.65 301.592 41.8667 301.058 42.3C300.558 42.7 300.125 43.2167 299.758 43.85C299.425 44.4833 299.158 45.1833 298.958 45.95C298.792 46.7167 298.658 47.45 298.558 48.15C300.625 48.1167 302.292 47.7667 303.558 47.1C304.858 46.4333 305.508 45.4833 305.508 44.25C305.508 43.5833 305.292 42.9833 304.858 42.45C304.458 41.9167 303.825 41.65 302.958 41.65ZM304.658 32.25C304.258 32.25 303.692 31.9333 302.958 31.3C302.225 30.6333 301.475 29.8667 300.708 29C299.975 28.1333 299.325 27.2833 298.758 26.45C298.225 25.5833 297.958 24.9667 297.958 24.6C297.958 24.3 298.158 23.9833 298.558 23.65C298.992 23.2833 299.492 22.95 300.058 22.65C300.658 22.35 301.275 22.1 301.908 21.9C302.542 21.6667 303.058 21.55 303.458 21.55C303.725 21.55 303.925 21.6 304.058 21.7C304.225 21.7667 304.375 21.9667 304.508 22.3C304.842 23.1667 305.175 24.0333 305.508 24.9C305.875 25.7333 306.208 26.5 306.508 27.2C306.808 27.9 307.042 28.5 307.208 29C307.408 29.4667 307.508 29.75 307.508 29.85C307.508 30.05 307.392 30.3 307.158 30.6C306.958 30.8667 306.708 31.1333 306.408 31.4C306.108 31.6333 305.792 31.8333 305.458 32C305.125 32.1667 304.858 32.25 304.658 32.25ZM328.82 35C330.453 35 331.786 35.4167 332.82 36.25C333.853 37.05 334.52 38.0667 334.82 39.3C334.82 39.1333 334.82 38.85 334.82 38.45C334.853 38.0167 334.903 37.5833 334.97 37.15C335.036 36.7167 335.136 36.3333 335.27 36C335.403 35.6667 335.57 35.5 335.77 35.5H338.02C339.72 35.5 341.003 35.8667 341.87 36.6C342.77 37.3333 343.22 38.4 343.22 39.8C343.22 40.1 343.203 40.5167 343.17 41.05C343.136 41.5833 343.07 42.3333 342.97 43.3C342.87 44.2333 342.753 45.45 342.62 46.95C342.52 48.4167 342.386 50.2667 342.22 52.5C342.053 54.7 341.853 57.3333 341.62 60.4C341.42 63.4333 341.203 66.9833 340.97 71.05C340.936 72.0167 340.586 72.5 339.92 72.5H337.97C336.97 72.5 336.136 72.3833 335.47 72.15C334.803 71.9167 334.27 71.6 333.87 71.2C333.47 70.8 333.186 70.3333 333.02 69.8C332.853 69.3 332.77 68.75 332.77 68.15C332.77 67.5833 332.82 66.4833 332.92 64.85C333.053 63.2167 333.203 61.3 333.37 59.1C332.603 60.4667 331.586 61.55 330.32 62.35C329.086 63.1167 327.52 63.5 325.62 63.5C324.253 63.5 323.02 63.2833 321.92 62.85C320.82 62.3833 319.87 61.6667 319.07 60.7C318.303 59.7 317.703 58.4333 317.27 56.9C316.836 55.3333 316.62 53.45 316.62 51.25C316.62 45.8833 317.67 41.8333 319.77 39.1C321.903 36.3667 324.92 35 328.82 35ZM330.62 41.65C329.453 41.65 328.52 41.9667 327.82 42.6C327.12 43.2333 326.586 44.0167 326.22 44.95C325.886 45.85 325.67 46.8 325.57 47.8C325.47 48.8 325.42 49.6667 325.42 50.4C325.42 52.7 325.72 54.35 326.32 55.35C326.953 56.35 327.903 56.85 329.17 56.85C330.37 56.85 331.32 56.4667 332.02 55.7C332.72 54.9333 333.236 54.05 333.57 53.05C333.936 52.0167 334.17 50.9833 334.27 49.95C334.37 48.8833 334.42 48.05 334.42 47.45C334.42 45.55 334.136 44.1167 333.57 43.15C333.003 42.15 332.02 41.65 330.62 41.65ZM357.088 39.75C357.088 40.45 357.022 41.4333 356.888 42.7C356.788 43.9667 356.672 45.2833 356.538 46.65C356.438 48.0167 356.322 49.3 356.188 50.5C356.088 51.7 356.038 52.5667 356.038 53.1C356.038 54.2667 356.322 55.1833 356.888 55.85C357.488 56.4833 358.305 56.8 359.338 56.8C360.238 56.8 360.988 56.45 361.588 55.75C362.222 55.0167 362.722 54.0833 363.088 52.95C363.488 51.7833 363.805 50.4667 364.038 49C364.272 47.5333 364.438 46.05 364.538 44.55C364.672 43.05 364.772 41.6 364.838 40.2C364.938 38.7667 365.038 37.5333 365.138 36.5C365.172 36.2333 365.272 36 365.438 35.8C365.605 35.6 365.872 35.5 366.238 35.5H368.038C369.072 35.5 369.905 35.6167 370.538 35.85C371.205 36.05 371.722 36.35 372.088 36.75C372.488 37.15 372.755 37.65 372.888 38.25C373.055 38.8167 373.138 39.4833 373.138 40.25C373.138 40.75 373.105 41.4667 373.038 42.4C373.005 43.3 372.922 44.5667 372.788 46.2C372.655 47.8 372.488 49.85 372.288 52.35C372.122 54.8167 371.905 57.8833 371.638 61.55C371.572 62.25 371.488 62.6667 371.388 62.8C371.322 62.9333 371.055 63 370.588 63H368.638C367.638 63 366.805 62.8833 366.138 62.65C365.505 62.4167 364.988 62.1167 364.588 61.75C364.188 61.3833 363.905 60.95 363.738 60.45C363.572 59.95 363.472 59.4333 363.438 58.9C362.938 59.7667 362.372 60.5 361.738 61.1C361.138 61.7 360.505 62.1833 359.838 62.55C359.172 62.8833 358.488 63.1167 357.788 63.25C357.088 63.4167 356.405 63.5 355.738 63.5C354.472 63.5 353.338 63.3 352.338 62.9C351.338 62.4667 350.488 61.9 349.788 61.2C349.122 60.5 348.605 59.6667 348.238 58.7C347.872 57.7333 347.688 56.7 347.688 55.6C347.688 55.1667 347.705 54.4667 347.738 53.5C347.805 52.5 347.872 51.3833 347.938 50.15C348.038 48.9167 348.138 47.6167 348.238 46.25C348.338 44.85 348.422 43.5333 348.488 42.3C348.588 41.0667 348.672 39.9833 348.738 39.05C348.838 38.1167 348.905 37.45 348.938 37.05C349.005 36.45 349.138 36.05 349.338 35.85C349.538 35.6167 349.872 35.5 350.338 35.5H351.938C352.972 35.5 353.822 35.6 354.488 35.8C355.155 36 355.672 36.2833 356.038 36.65C356.438 37.0167 356.705 37.4667 356.838 38C357.005 38.5 357.088 39.0833 357.088 39.75ZM389.069 63.5C387.602 63.5 386.135 63.3167 384.669 62.95C383.235 62.5833 381.935 61.95 380.769 61.05C379.635 60.15 378.702 58.95 377.969 57.45C377.235 55.95 376.869 54.0667 376.869 51.8C376.869 50.9667 376.935 49.9667 377.069 48.8C377.202 47.6333 377.452 46.4333 377.819 45.2C378.219 43.9667 378.752 42.75 379.419 41.55C380.119 40.3167 381.019 39.2167 382.119 38.25C383.219 37.2833 384.552 36.5 386.119 35.9C387.685 35.3 389.552 35 391.719 35C393.452 35 394.919 35.2 396.119 35.6C397.319 36 398.285 36.55 399.019 37.25C399.752 37.9167 400.285 38.7 400.619 39.6C400.952 40.5 401.119 41.4667 401.119 42.5C401.119 44.0333 400.802 45.3333 400.169 46.4C399.569 47.4667 398.769 48.3667 397.769 49.1C396.802 49.8 395.719 50.35 394.519 50.75C393.319 51.15 392.135 51.4667 390.969 51.7C389.802 51.9 388.719 52.0333 387.719 52.1C386.752 52.1333 386.002 52.15 385.469 52.15C385.469 52.7833 385.552 53.4167 385.719 54.05C385.919 54.65 386.202 55.1833 386.569 55.65C386.935 56.1167 387.419 56.5 388.019 56.8C388.619 57.1 389.352 57.25 390.219 57.25C391.085 57.25 391.752 57.1167 392.219 56.85C392.719 56.55 393.119 56.2333 393.419 55.9C393.719 55.5333 393.969 55.2167 394.169 54.95C394.402 54.65 394.702 54.5 395.069 54.5C395.235 54.5 395.519 54.55 395.919 54.65C396.352 54.7167 396.785 54.8833 397.219 55.15C397.652 55.4167 398.035 55.7833 398.369 56.25C398.702 56.7167 398.869 57.3167 398.869 58.05C398.869 59.0167 398.569 59.85 397.969 60.55C397.369 61.25 396.585 61.8167 395.619 62.25C394.685 62.6833 393.635 63 392.469 63.2C391.302 63.4 390.169 63.5 389.069 63.5ZM390.019 41.65C389.285 41.65 388.652 41.8667 388.119 42.3C387.619 42.7 387.185 43.2167 386.819 43.85C386.485 44.4833 386.219 45.1833 386.019 45.95C385.852 46.7167 385.719 47.45 385.619 48.15C387.685 48.1167 389.352 47.7667 390.619 47.1C391.919 46.4333 392.569 45.4833 392.569 44.25C392.569 43.5833 392.352 42.9833 391.919 42.45C391.519 41.9167 390.885 41.65 390.019 41.65Z" fill="white"/>
</svg>
